<svg xmlns="http://www.w3.org/2000/svg" width="1273" height="512" xmlns:v="https://vecta.io/nano"><path d="M392.5 512c-6.6 0-10.1-5.06-7.79-11.24L556.29 43.24c2.31-6.18 6.11-6.18 8.42 0l55.58 148.19c2.31 6.18 2.31 16.29 0 22.47l-23.58 62.86c-2.31 6.18 1.19 11.24 7.79 11.24h40c6.6 0 13.9 5.06 16.21 11.24l39.58 105.52c2.31 6.18-1.19 11.24-7.79 11.24h-136c-6.6 0-13.9 5.06-16.21 11.24l-27.58 73.52C510.4 506.94 503.1 512 496.5 512zM576.71 11.24C574.4 5.06 577.9 0 584.5 0h104c6.6 0 13.9 5.06 16.21 11.24l183.58 489.52c2.31 6.18-1.19 11.24-7.79 11.24h-104c-6.6 0-13.9-5.06-16.21-11.24z" fill="#3e3546"/><path d="M128.71 500.76C126.4 506.94 119.1 512 112.5 512H8.5c-6.6 0-10.1-5.06-7.79-11.24l131.21-349.89c2.32-6.18 9.27-13.13 15.45-15.45L273.85 88c6.18-2.32 9.34.84 7 7z" fill="#905ea9"/><path d="M200.5 512c-6.6 0-10.1-5.06-7.79-11.24L355.34 67.09c2.32-6.18 9.27-13.09 15.45-15.45L497.26 4.21c6.18-2.31 9.34.85 7 7L320.71 500.76C318.4 506.94 311.1 512 304.5 512zM768.71 11.24c-2.31-6.18.85-9.34 7-7l126.5 47.4c6.18 2.32 13.13 9.27 15.45 15.45l162.63 433.67c2.31 6.18-1.19 11.24-7.79 11.24h-104c-6.6 0-13.9-5.06-16.21-11.24z" fill="#6b3e75"/><path d="M992.13 95c-2.32-6.18.84-9.34 7-7l126.48 47.42c6.18 2.32 13.13 9.27 15.45 15.45l131.23 349.89c2.31 6.18-1.19 11.24-7.79 11.24h-104c-6.6 0-13.9-5.06-16.21-11.24z" fill="#905ea9"/></svg>