<svg xmlns="http://www.w3.org/2000/svg" width="512" height="512" fill="#3e3546" xmlns:v="https://vecta.io/nano"><path d="M12 512c-6.6 0-10.1-5.06-7.79-11.24L175.79 43.24c2.31-6.18 6.11-6.18 8.42 0l55.58 148.19c2.31 6.18 2.31 16.29 0 22.47l-23.58 62.86C213.9 282.94 217.4 288 224 288h40c6.6 0 13.9 5.06 16.21 11.24l39.58 105.52C322.1 410.94 318.6 416 312 416H176c-6.6 0-13.9 5.06-16.21 11.24l-27.58 73.52C129.9 506.94 122.6 512 116 512zM196.21 11.24C193.9 5.06 197.4 0 204 0h104c6.6 0 13.9 5.06 16.21 11.24l183.58 489.52C510.1 506.94 506.6 512 500 512H396c-6.6 0-13.9-5.06-16.21-11.24z"/></svg>