<svg xmlns="http://www.w3.org/2000/svg" xmlns:xlink="http://www.w3.org/1999/xlink" width="1273" height="512" xmlns:v="https://vecta.io/nano"><defs><linearGradient id="A" x1="13" y1="134.65" x2="210.29" y2="476.37" gradientUnits="userSpaceOnUse"><stop offset="0" stop-color="#73275c"/><stop offset="1" stop-color="#422445"/></linearGradient><linearGradient id="B" x1="203.44" y1="-1.32" x2="500.56" y2="513.32" xlink:href="#A"/><linearGradient id="C" x1="-308.68" y1="178.76" x2="-153.18" y2="448.1" xlink:href="#A"/><linearGradient id="D" x1="-115.19" y1="112.25" x2="68.74" y2="430.82" xlink:href="#A"/><linearGradient id="E" x1="391.98" y1="2.42" x2="688.35" y2="515.75" xlink:href="#A"/><linearGradient id="F" x1="621.76" y1="82.53" x2="874" y2="519.42" xlink:href="#A"/></defs><g transform="translate(380.5)"><path d="M12,512c-6.6,0-10.1-5.06-7.79-11.24L175.79,43.24c2.31-6.18,6.11-6.18,8.42,0l55.58,148.19c2.31,6.18,2.31,16.29,0,22.47l-23.58,62.86C213.9,282.94,217.4,288,224,288h40c6.6,0,13.9,5.06,16.21,11.24l39.58,105.52C322.1,410.94,318.6,416,312,416H176c-6.6,0-13.9,5.06-16.21,11.24l-27.58,73.52C129.9,506.94,122.6,512,116,512Z" fill="url(#A)"/><path d="M196.21,11.24C193.9,5.06,197.4,0,204,0H308c6.6,0,13.9,5.06,16.21,11.24L507.79,500.76C510.1,506.94,506.6,512,500,512H396c-6.6,0-13.9-5.06-16.21-11.24Z" fill="url(#B)"/><path d="M-251.79,500.76C-254.1,506.94-261.4,512-268,512H-372c-6.6,0-10.1-5.06-7.79-11.24l131.21-349.89c2.32-6.18,9.27-13.13,15.45-15.45L-106.65,88c6.18-2.32,9.34.84,7,7Z" fill="url(#C)"/><path d="M-180,512c-6.6,0-10.1-5.06-7.79-11.24L-25.16,67.09C-22.84,60.91-15.89,54-9.71,51.64L116.76,4.21c6.18-2.31,9.34.85,7,7L-59.79,500.76C-62.1,506.94-69.4,512-76,512Z" fill="url(#D)"/><path d="M388.21 11.24c-2.31-6.18.85-9.34 7-7l126.5 47.4c6.18 2.32 13.13 9.27 15.45 15.45l162.63 433.67C702.1 506.94 698.6 512 692 512H588c-6.6 0-13.9-5.06-16.21-11.24z" fill="url(#E)"/><path d="M611.63,95c-2.32-6.18.84-9.34,7-7l126.48,47.42c6.18,2.32,13.13,9.27,15.45,15.45L891.79,500.76C894.1,506.94,890.6,512,884,512H780c-6.6,0-13.9-5.06-16.21-11.24Z" fill="url(#F)"/></g></svg>