<svg xmlns="http://www.w3.org/2000/svg" xmlns:xlink="http://www.w3.org/1999/xlink" width="1303.2" height="542.16" viewBox="0 0 1303.2 542.16"><defs><linearGradient id="a299bf6a-8cf5-4474-8656-cb5f76fa41e8" x1="13" y1="134.65" x2="210.29" y2="476.37" gradientUnits="userSpaceOnUse"><stop offset="0" stop-color="#73275c"/><stop offset="1" stop-color="#422445"/></linearGradient><linearGradient id="ee3e14d5-0e76-4b0e-bdc4-78e7350c1c13" x1="203.44" y1="-1.32" x2="500.56" y2="513.32" xlink:href="#a299bf6a-8cf5-4474-8656-cb5f76fa41e8"/><linearGradient id="be64de5a-5784-4fee-a23a-8deec0a0df70" x1="-308.68" y1="178.76" x2="-153.18" y2="448.1" xlink:href="#a299bf6a-8cf5-4474-8656-cb5f76fa41e8"/><linearGradient id="ada75ce1-0735-4fc3-ba29-5391be39058f" x1="-115.19" y1="112.25" x2="68.74" y2="430.82" xlink:href="#a299bf6a-8cf5-4474-8656-cb5f76fa41e8"/><linearGradient id="a77ec1c7-55af-4751-99ba-13e7a8addfce" x1="391.98" y1="2.42" x2="688.35" y2="515.75" xlink:href="#a299bf6a-8cf5-4474-8656-cb5f76fa41e8"/><linearGradient id="f501e634-1283-45b8-bc28-8049a13e865d" x1="621.76" y1="82.53" x2="874" y2="519.42" xlink:href="#a299bf6a-8cf5-4474-8656-cb5f76fa41e8"/><linearGradient id="b1e2793d-c82b-4bd5-9181-4980d34d2f50" x1="218.59" y1="256" x2="485.41" y2="256" gradientUnits="userSpaceOnUse"><stop offset="0" stop-color="#80366b"/><stop offset="1" stop-color="#5a265e"/></linearGradient><linearGradient id="b1a4c64b-a0f2-46e8-9198-0ff75de5db55" x1="34.99" y1="167.52" x2="199.85" y2="453.07" xlink:href="#b1e2793d-c82b-4bd5-9181-4980d34d2f50"/><linearGradient id="f42ceb00-7d58-40f0-98e3-f042bf926c4b" x1="-304.25" y1="195.8" x2="-166.93" y2="433.63" xlink:href="#b1e2793d-c82b-4bd5-9181-4980d34d2f50"/><linearGradient id="ad01f831-7684-4759-8ae7-6eb9382a0d0f" x1="-110.75" y1="129.29" x2="54.99" y2="416.36" xlink:href="#b1e2793d-c82b-4bd5-9181-4980d34d2f50"/><linearGradient id="bbd6ec22-7c24-4911-8383-730b66694d7d" x1="410.93" y1="34.61" x2="675.92" y2="493.6" xlink:href="#b1e2793d-c82b-4bd5-9181-4980d34d2f50"/><linearGradient id="b1a8e433-cdfa-469f-b44e-4db26505afa9" x1="640.7" y1="114.72" x2="861.57" y2="497.27" xlink:href="#b1e2793d-c82b-4bd5-9181-4980d34d2f50"/><linearGradient id="e5751782-aece-46ae-ae62-286a85acd032" x1="-308.68" y1="178.76" x2="-153.18" y2="448.1" xlink:href="#b1e2793d-c82b-4bd5-9181-4980d34d2f50"/><linearGradient id="a9f99389-288f-4a68-92e9-54c382d416b4" x1="621.76" y1="82.53" x2="874" y2="519.42" xlink:href="#b1e2793d-c82b-4bd5-9181-4980d34d2f50"/><linearGradient id="e24f505c-a92f-494b-87fc-7ed52166559e" x1="-115.19" y1="112.25" x2="68.74" y2="430.82" xlink:href="#b1e2793d-c82b-4bd5-9181-4980d34d2f50"/><linearGradient id="a6197c74-717d-4a5f-9f07-81ca3820d7aa" x1="391.98" y1="2.42" x2="688.35" y2="515.75" xlink:href="#b1e2793d-c82b-4bd5-9181-4980d34d2f50"/></defs><g style="isolation:isolate"><g id="ba1b9400-1e7c-49cf-a78f-a732f1f0b446" data-name="Letter Fluent Test">
<image width="5430" height="2259" transform="scale(0.24)" xlink:href="   " style="opacity:0.5;mix-blend-mode:multiply"/>
<path d="M12,512c-6.6,0-10.1-5.06-7.79-11.24L175.79,43.24c2.31-6.18,6.11-6.18,8.42,0l55.58,148.19c2.31,6.18,2.31,16.29,0,22.47l-23.58,62.86C213.9,282.94,217.4,288,224,288h40c6.6,0,13.9,5.06,16.21,11.24l39.58,105.52C322.1,410.94,318.6,416,312,416H176c-6.6,0-13.9,5.06-16.21,11.24l-27.58,73.52C129.9,506.94,122.6,512,116,512Z" transform="translate(395.64 15)" style="fill:url(#a299bf6a-8cf5-4474-8656-cb5f76fa41e8)"/><path d="M196.21,11.24C193.9,5.06,197.4,0,204,0H308c6.6,0,13.9,5.06,16.21,11.24L507.79,500.76C510.1,506.94,506.6,512,500,512H396c-6.6,0-13.9-5.06-16.21-11.24Z" transform="translate(395.64 15)" style="fill:url(#ee3e14d5-0e76-4b0e-bdc4-78e7350c1c13)"/><path d="M-251.79,500.76C-254.1,506.94-261.4,512-268,512H-372c-6.6,0-10.1-5.06-7.79-11.24l131.21-349.89c2.32-6.18,9.27-13.13,15.45-15.45L-106.65,88c6.18-2.32,9.34.84,7,7Z" transform="translate(395.64 15)" style="fill:url(#be64de5a-5784-4fee-a23a-8deec0a0df70)"/><path d="M-180,512c-6.6,0-10.1-5.06-7.79-11.24L-25.16,67.09C-22.84,60.91-15.89,54-9.71,51.64L116.76,4.21c6.18-2.31,9.34.85,7,7L-59.79,500.76C-62.1,506.94-69.4,512-76,512Z" transform="translate(395.64 15)" style="fill:url(#ada75ce1-0735-4fc3-ba29-5391be39058f)"/><path d="M388.21,11.24c-2.31-6.18.85-9.34,7-7L521.71,51.64c6.18,2.32,13.13,9.27,15.45,15.45L699.79,500.76C702.1,506.94,698.6,512,692,512H588c-6.6,0-13.9-5.06-16.21-11.24Z" transform="translate(395.64 15)" style="fill:url(#a77ec1c7-55af-4751-99ba-13e7a8addfce)"/><g id="fc828ee0-7b32-480d-97f1-6908790fe8aa" data-name="L2"><path d="M611.63,95c-2.32-6.18.84-9.34,7-7l126.48,47.42c6.18,2.32,13.13,9.27,15.45,15.45L891.79,500.76C894.1,506.94,890.6,512,884,512H780c-6.6,0-13.9-5.06-16.21-11.24Z" transform="translate(395.64 15)" style="fill:url(#f501e634-1283-45b8-bc28-8049a13e865d)"/></g><g id="f1716b7c-2405-4f53-a021-1ad04814722f" data-name="Front">
<image width="5238" height="2126" transform="translate(23.04 15.84) scale(0.24)" xlink:href="   " style="opacity:0.33;mix-blend-mode:multiply"/>
<path d="M219.3,27.24C217,21.06,220.49,16,227.09,16h69.82c6.6,0,13.9,5.06,16.22,11.24L484.7,484.76c2.32,6.18-1.19,11.24-7.79,11.24H407.09c-6.6,0-13.9-5.06-16.22-11.24Z" transform="translate(395.64 15)" style="fill:url(#b1e2793d-c82b-4bd5-9181-4980d34d2f50)"/><path d="M35.09,496c-6.6,0-10.11-5.06-7.79-11.24l148.49-396c2.31-6.18,6.11-6.18,8.42,0L222.7,191.43c2.32,6.18,2.32,16.29,0,22.47l-29.57,78.86c-2.32,6.18,1.18,11.24,7.78,11.24h52c6.6,0,13.9,5.06,16.22,11.24l27.57,73.52c2.32,6.18-1.19,11.24-7.79,11.24h-124c-6.6,0-13.89,5.06-16.21,11.24l-27.57,73.52c-2.32,6.18-9.62,11.24-16.22,11.24Z" transform="translate(395.64 15)" style="fill:url(#b1a4c64b-a0f2-46e8-9198-0ff75de5db55)"/><path d="M-348.91,496c-6.6,0-10.11-5.06-7.79-11.24L-236.15,163.3c2.32-6.18,9.27-13.13,15.45-15.45L-134,115.34c6.17-2.32,9.34.84,7,7l-135.9,362.4c-2.32,6.18-9.62,11.24-16.22,11.24Z" transform="translate(395.64 15)" style="fill:url(#f42ceb00-7d58-40f0-98e3-f042bf926c4b)"/><path d="M-156.91,496c-6.6,0-10.11-5.06-7.79-11.24l152-405.24c2.32-6.18,9.27-13.13,15.45-15.45l86.7-32.52c6.18-2.31,9.34.85,7,7L-70.87,484.76C-73.19,490.94-80.49,496-87.09,496Z" transform="translate(395.64 15)" style="fill:url(#ad01f831-7684-4759-8ae7-6eb9382a0d0f)"/><path d="M599.09,496c-6.6,0-13.9-5.06-16.22-11.24L415.55,38.58c-2.31-6.18.85-9.34,7-7l86.7,32.52c6.18,2.32,13.13,9.27,15.45,15.45l152,405.24c2.32,6.18-1.19,11.24-7.79,11.24Z" transform="translate(395.64 15)" style="fill:url(#bbd6ec22-7c24-4911-8383-730b66694d7d)"/><g id="ad6ded3e-9aa2-4716-9cbd-49bae2c35056" data-name="L2"><path d="M868.7,484.76c2.32,6.18-1.19,11.24-7.79,11.24H791.09c-6.6,0-13.9-5.06-16.22-11.24L639,122.36c-2.32-6.18.85-9.34,7-7l86.71,32.51c6.18,2.32,13.13,9.27,15.45,15.45Z" transform="translate(395.64 15)" style="fill:url(#b1a8e433-cdfa-469f-b44e-4db26505afa9)"/></g></g><g style="opacity:0.75;mix-blend-mode:multiply"><g id="b0e50ac8-6aee-49eb-96af-a0338deb1e97" data-name="x2" style="opacity:0.5"><path d="M-379.79,500.76C-382.1,506.94-378.6,512-372,512h104c6.6,0,13.9-5.06,16.21-11.24L-99.63,95c2.32-6.18-.84-9.34-7-7l-126.48,47.42c-6.18,2.32-13.13,9.27-15.45,15.45Z" transform="translate(395.64 15)" style="fill:url(#e5751782-aece-46ae-ae62-286a85acd032)"/><path d="M760.58,150.87c-2.32-6.18-9.27-13.13-15.45-15.45L618.65,88c-6.18-2.32-9.34.84-7,7L763.79,500.76C766.1,506.94,773.4,512,780,512H884c6.6,0,10.1-5.06,7.79-11.24Z" transform="translate(395.64 15)" style="fill:url(#a9f99389-288f-4a68-92e9-54c382d416b4)"/></g><g id="f803c4f0-f3ae-4d0f-9e31-b2e9bc6c90f1" data-name="x1" style="opacity:0.25"><path d="M-187.79,500.76C-190.1,506.94-186.6,512-180,512H-76c6.6,0,13.9-5.06,16.21-11.24L123.79,11.24c2.31-6.18-.85-9.34-7-7L-9.71,51.64C-15.89,54-22.84,60.91-25.16,67.09Z" transform="translate(395.64 15)" style="fill:url(#e24f505c-a92f-494b-87fc-7ed52166559e)"/><path d="M537.16,67.09c-2.32-6.18-9.27-13.13-15.45-15.45L395.24,4.21c-6.18-2.31-9.34.85-7,7L571.79,500.76C574.1,506.94,581.4,512,588,512H692c6.6,0,10.1-5.06,7.79-11.24Z" transform="translate(395.64 15)" style="fill:url(#a6197c74-717d-4a5f-9f07-81ca3820d7aa)"/></g></g></g></g></svg>