<svg xmlns="http://www.w3.org/2000/svg" width="302.362" height="302.362" viewBox="0 0 80 80" xmlns:v="https://vecta.io/nano"><g fill="#6b3e75"><path d="M30 0l10 26.667L50 0zm-1.667 4.445L0 80h20l18.333-48.89z"/><path d="M15 45v20h36.042l-7.5-20zm31.875 0l7.5 20H65V45z"/><path d="M30 0h20l30 80H60z"/></g><path d="M.937 77.5L0 80h20l.937-2.5zM40.225 45l7.5 20h3.317l-7.5-20z" fill="#3e3546"/><path d="M30 0h3.333l30 80H60z" fill="#905ea9"/><path d="M79.062 77.5L80 80H60l-.937-2.5z" fill="#6b3e75"/><path d="M27.957 5.447L0 80l4.27-2.5 24.055-64.19.007-7.864z" fill="#905ea9"/><path d="M35.016 31.1L28.87 47.5h3.317l6.146-16.4zm-11.77 31.4L16.683 80H20l6.562-17.5h-3.316z" fill="#3e3546"/><path d="M28.333 4.445l-2.05 5.467h4.1z" fill="#905ea9"/><path d="M28.333 4.445l.008 8.866 8.333 22.222 1.658-4.422z" fill="#3e3546"/><path d="M30.938 2.5L30 0h20l.937 2.5z" fill="#905ea9"/><g fill="#3e3546"><path d="M50 0l-2.396 2.5L76.667 80H80z"/><path d="M62.396 77.5L60 80h20l-.937-2.5zm-12.292-15l.937 2.5h-20l-.937-2.5z"/><path d="M23.246 62.5l-.937 2.5h20l.937-2.5z"/></g><path d="M33.124 45l-4.254 2.5h12.292l2.38-2.5zm11.574-5.805L60 80l2.395-2.5L48.03 39.195z" fill="#905ea9"/></svg>